<svg width="23" height="19" viewBox="0 0 23 19" fill="none" xmlns="http://www.w3.org/2000/svg">
<path d="M7.7207 18.7773C6.77148 18.7773 6.05371 18.5342 5.56738 18.0479C5.08105 17.5674 4.83789 16.8584 4.83789 15.9209V7.57129C4.83789 6.62793 5.08105 5.91602 5.56738 5.43555C6.05371 4.95508 6.77148 4.71484 7.7207 4.71484H19.7178C20.6611 4.71484 21.376 4.95801 21.8623 5.44434C22.3545 5.9248 22.6006 6.63379 22.6006 7.57129V15.9209C22.6006 16.8584 22.3545 17.5674 21.8623 18.0479C21.376 18.5342 20.6611 18.7773 19.7178 18.7773H7.7207ZM7.7207 3.43164C6.84766 3.43164 6.10059 3.5957 5.47949 3.92383C4.8584 4.25195 4.38086 4.72656 4.04688 5.34766C3.71289 5.96289 3.5459 6.7041 3.5459 7.57129V14.5938H3.23828C2.29492 14.5879 1.58301 14.3447 1.10254 13.8643C0.62793 13.3838 0.390625 12.6748 0.390625 11.7373V3.3877C0.390625 2.4502 0.633789 1.74121 1.12012 1.26074C1.60645 0.774414 2.32422 0.53125 3.27344 0.53125H15.2705C16.2021 0.53125 16.9111 0.765625 17.3975 1.23438C17.8896 1.70312 18.1416 2.39453 18.1533 3.30859V3.43164H7.7207ZM9.42578 11.7549C9.42578 12.0068 9.50781 12.2119 9.67188 12.3701C9.83594 12.5283 10.0439 12.6074 10.2959 12.6074H12.8623V15.1826C12.8623 15.4346 12.9414 15.6426 13.0996 15.8066C13.2578 15.9648 13.4629 16.0439 13.7148 16.0439C13.9727 16.0439 14.1807 15.9648 14.3389 15.8066C14.5029 15.6426 14.585 15.4346 14.585 15.1826V12.6074H17.1602C17.4062 12.6074 17.6113 12.5283 17.7754 12.3701C17.9395 12.2119 18.0215 12.0068 18.0215 11.7549C18.0215 11.4971 17.9395 11.2891 17.7754 11.1309C17.6172 10.9668 17.4121 10.8848 17.1602 10.8848H14.585V8.31836C14.585 8.06641 14.5029 7.8584 14.3389 7.69434C14.1807 7.52441 13.9727 7.43945 13.7148 7.43945C13.4629 7.43945 13.2578 7.52441 13.0996 7.69434C12.9414 7.8584 12.8623 8.06641 12.8623 8.31836V10.8848H10.2959C10.0439 10.8848 9.83594 10.9668 9.67188 11.1309C9.50781 11.2891 9.42578 11.4971 9.42578 11.7549Z" fill="#549EFF"/>
</svg>
