<svg width="20" height="19" viewBox="0 0 20 19" fill="none" xmlns="http://www.w3.org/2000/svg">
<path d="M9.19141 18.9883C8.93359 18.9883 8.71387 18.915 8.53223 18.7686C8.35059 18.6279 8.22754 18.4287 8.16309 18.1709L7.72363 16.2988C7.57129 16.2461 7.42188 16.1904 7.27539 16.1318C7.13477 16.0791 7 16.0234 6.87109 15.9648L5.23633 16.958C5.01953 17.0928 4.79395 17.1484 4.55957 17.125C4.3252 17.1074 4.11719 17.0078 3.93555 16.8262L2.81934 15.71C2.6377 15.5283 2.53516 15.3174 2.51172 15.0771C2.48828 14.8311 2.54688 14.5996 2.6875 14.3828L3.68066 12.7656C3.62207 12.6309 3.56348 12.4961 3.50488 12.3613C3.44629 12.2207 3.39648 12.0801 3.35547 11.9395L1.47461 11.4912C1.2168 11.4326 1.01465 11.3125 0.868164 11.1309C0.727539 10.9492 0.657227 10.7266 0.657227 10.4629V8.88965C0.657227 8.63184 0.727539 8.41211 0.868164 8.23047C1.01465 8.04883 1.2168 7.92871 1.47461 7.87012L3.33789 7.42188C3.38477 7.26367 3.4375 7.11426 3.49609 6.97363C3.55469 6.83301 3.61035 6.70117 3.66309 6.57812L2.66992 4.93457C2.53516 4.71191 2.47656 4.48633 2.49414 4.25781C2.51172 4.02344 2.61426 3.81543 2.80176 3.63379L3.93555 2.50879C4.11719 2.32715 4.31934 2.22461 4.54199 2.20117C4.76465 2.17188 4.98438 2.22168 5.20117 2.35059L6.8623 3.37012C6.99121 3.30566 7.12891 3.24414 7.27539 3.18555C7.42188 3.12695 7.57129 3.07129 7.72363 3.01855L8.16309 1.1377C8.22754 0.885742 8.35059 0.686523 8.53223 0.540039C8.71387 0.387695 8.93359 0.311523 9.19141 0.311523H10.7998C11.0635 0.311523 11.2832 0.387695 11.459 0.540039C11.6406 0.686523 11.7637 0.885742 11.8281 1.1377L12.2676 3.03613C12.4258 3.08887 12.5752 3.14453 12.7158 3.20312C12.8623 3.25586 12.9971 3.31445 13.1201 3.37891L14.79 2.35059C15.0068 2.22168 15.2236 2.1748 15.4404 2.20996C15.6631 2.23926 15.8652 2.33594 16.0469 2.5L17.1982 3.63379C17.3857 3.81543 17.4854 4.02344 17.4971 4.25781C17.5146 4.48633 17.4561 4.71191 17.3213 4.93457L16.3193 6.57812C16.3721 6.70117 16.4277 6.83301 16.4863 6.97363C16.5449 7.11426 16.6006 7.26367 16.6533 7.42188L18.5254 7.87012C18.7773 7.92871 18.9736 8.04883 19.1143 8.23047C19.2607 8.41211 19.334 8.63184 19.334 8.88965V10.4629C19.334 10.7266 19.2607 10.9492 19.1143 11.1309C18.9736 11.3125 18.7773 11.4326 18.5254 11.4912L16.6357 11.9395C16.5889 12.0801 16.5391 12.2207 16.4863 12.3613C16.4336 12.4961 16.3721 12.6309 16.3018 12.7656L17.3037 14.3828C17.4443 14.5996 17.5029 14.8311 17.4795 15.0771C17.4619 15.3174 17.3623 15.5283 17.1807 15.71L16.0557 16.8262C15.874 17.0078 15.666 17.1074 15.4316 17.125C15.1973 17.1484 14.9717 17.0928 14.7549 16.958L13.1201 15.9648C12.9912 16.0234 12.8535 16.0791 12.707 16.1318C12.5664 16.1904 12.4199 16.2461 12.2676 16.2988L11.8281 18.1709C11.7637 18.4287 11.6406 18.6279 11.459 18.7686C11.2832 18.915 11.0635 18.9883 10.7998 18.9883H9.19141ZM10 12.7305C10.5625 12.7305 11.0752 12.5928 11.5381 12.3174C12.0068 12.042 12.3789 11.6699 12.6543 11.2012C12.9297 10.7324 13.0674 10.2168 13.0674 9.6543C13.0674 9.0918 12.9297 8.57617 12.6543 8.10742C12.3789 7.63867 12.0068 7.2666 11.5381 6.99121C11.0752 6.71582 10.5625 6.57812 10 6.57812C9.43164 6.57812 8.91309 6.71582 8.44434 6.99121C7.98145 7.2666 7.6123 7.63867 7.33691 8.10742C7.06152 8.57617 6.92383 9.0918 6.92383 9.6543C6.92383 10.2168 7.06152 10.7324 7.33691 11.2012C7.6123 11.6699 7.98145 12.042 8.44434 12.3174C8.91309 12.5928 9.43164 12.7305 10 12.7305Z" fill="#549EFF"/>
</svg>
